<mxfile host="Electron" agent="Mozilla/5.0 (Windows NT 10.0; Win64; x64) AppleWebKit/537.36 (KHTML, like Gecko) draw.io/26.0.16 Chrome/132.0.6834.196 Electron/34.2.0 Safari/537.36" version="26.0.16">
  <diagram name="Page-1" id="nZxBeRcN2BHn5AB6WjSe">
    <mxGraphModel dx="875" dy="518" grid="1" gridSize="10" guides="1" tooltips="1" connect="1" arrows="1" fold="1" page="1" pageScale="1" pageWidth="827" pageHeight="1169" math="0" shadow="0">
      <root>
        <mxCell id="0" />
        <mxCell id="1" parent="0" />
        <mxCell id="AhedybuLxWRTys-1fPIC-1" value="Bronze Layer" style="rounded=0;whiteSpace=wrap;html=1;sketch=1;hachureGap=4;jiggle=2;curveFitting=1;fontFamily=Architects Daughter;fontSource=https%3A%2F%2Ffonts.googleapis.com%2Fcss%3Ffamily%3DArchitects%2BDaughter;fillColor=#FFB570;gradientColor=none;" vertex="1" parent="1">
          <mxGeometry x="230" y="10" width="120" height="40" as="geometry" />
        </mxCell>
        <mxCell id="AhedybuLxWRTys-1fPIC-2" value="Silver Layer" style="rounded=0;whiteSpace=wrap;html=1;sketch=1;hachureGap=4;jiggle=2;curveFitting=1;fontFamily=Architects Daughter;fontSource=https%3A%2F%2Ffonts.googleapis.com%2Fcss%3Ffamily%3DArchitects%2BDaughter;fillColor=#C0C0C0;" vertex="1" parent="1">
          <mxGeometry x="440" y="10" width="120" height="40" as="geometry" />
        </mxCell>
        <mxCell id="AhedybuLxWRTys-1fPIC-3" value="Gold&lt;span style=&quot;background-color: transparent; color: light-dark(rgb(0, 0, 0), rgb(255, 255, 255));&quot;&gt;&amp;nbsp;Layer&lt;/span&gt;" style="rounded=0;whiteSpace=wrap;html=1;sketch=1;hachureGap=4;jiggle=2;curveFitting=1;fontFamily=Architects Daughter;fontSource=https%3A%2F%2Ffonts.googleapis.com%2Fcss%3Ffamily%3DArchitects%2BDaughter;fillColor=#FFFF00;" vertex="1" parent="1">
          <mxGeometry x="640" y="10" width="150" height="40" as="geometry" />
        </mxCell>
        <mxCell id="AhedybuLxWRTys-1fPIC-4" value="Definition" style="rounded=0;whiteSpace=wrap;html=1;sketch=1;hachureGap=4;jiggle=2;curveFitting=1;fontFamily=Architects Daughter;fontSource=https%3A%2F%2Ffonts.googleapis.com%2Fcss%3Ffamily%3DArchitects%2BDaughter;fillColor=#dae8fc;strokeColor=#6c8ebf;" vertex="1" parent="1">
          <mxGeometry x="20" y="70" width="120" height="40" as="geometry" />
        </mxCell>
        <mxCell id="AhedybuLxWRTys-1fPIC-5" value="Objective" style="rounded=0;whiteSpace=wrap;html=1;sketch=1;hachureGap=4;jiggle=2;curveFitting=1;fontFamily=Architects Daughter;fontSource=https%3A%2F%2Ffonts.googleapis.com%2Fcss%3Ffamily%3DArchitects%2BDaughter;fillColor=#dae8fc;strokeColor=#6c8ebf;" vertex="1" parent="1">
          <mxGeometry x="20" y="140" width="120" height="40" as="geometry" />
        </mxCell>
        <mxCell id="AhedybuLxWRTys-1fPIC-6" value="Row, unprocessed data as -is sources" style="rounded=0;whiteSpace=wrap;html=1;sketch=1;hachureGap=4;jiggle=2;curveFitting=1;fontFamily=Architects Daughter;fontSource=https%3A%2F%2Ffonts.googleapis.com%2Fcss%3Ffamily%3DArchitects%2BDaughter;" vertex="1" parent="1">
          <mxGeometry x="190" y="70" width="160" height="40" as="geometry" />
        </mxCell>
        <mxCell id="AhedybuLxWRTys-1fPIC-7" value="Traceability &amp;amp; Debugging" style="rounded=0;whiteSpace=wrap;html=1;sketch=1;hachureGap=4;jiggle=2;curveFitting=1;fontFamily=Architects Daughter;fontSource=https%3A%2F%2Ffonts.googleapis.com%2Fcss%3Ffamily%3DArchitects%2BDaughter;" vertex="1" parent="1">
          <mxGeometry x="190" y="140" width="160" height="40" as="geometry" />
        </mxCell>
        <mxCell id="AhedybuLxWRTys-1fPIC-8" value="Clean &amp;amp; stadardiized" style="rounded=0;whiteSpace=wrap;html=1;sketch=1;hachureGap=4;jiggle=2;curveFitting=1;fontFamily=Architects Daughter;fontSource=https%3A%2F%2Ffonts.googleapis.com%2Fcss%3Ffamily%3DArchitects%2BDaughter;" vertex="1" parent="1">
          <mxGeometry x="400" y="70" width="160" height="40" as="geometry" />
        </mxCell>
        <mxCell id="AhedybuLxWRTys-1fPIC-9" value="(Intermediate Layer)&lt;div&gt;Prepare Data for Analysis&lt;/div&gt;" style="rounded=0;whiteSpace=wrap;html=1;sketch=1;hachureGap=4;jiggle=2;curveFitting=1;fontFamily=Architects Daughter;fontSource=https%3A%2F%2Ffonts.googleapis.com%2Fcss%3Ffamily%3DArchitects%2BDaughter;" vertex="1" parent="1">
          <mxGeometry x="400" y="140" width="160" height="40" as="geometry" />
        </mxCell>
        <mxCell id="AhedybuLxWRTys-1fPIC-10" value="Business- Ready data" style="rounded=0;whiteSpace=wrap;html=1;sketch=1;hachureGap=4;jiggle=2;curveFitting=1;fontFamily=Architects Daughter;fontSource=https%3A%2F%2Ffonts.googleapis.com%2Fcss%3Ffamily%3DArchitects%2BDaughter;" vertex="1" parent="1">
          <mxGeometry x="600" y="70" width="190" height="40" as="geometry" />
        </mxCell>
        <mxCell id="AhedybuLxWRTys-1fPIC-11" value="Provide data to be consumed for reporting &amp;amp; Analytics" style="rounded=0;whiteSpace=wrap;html=1;sketch=1;hachureGap=4;jiggle=2;curveFitting=1;fontFamily=Architects Daughter;fontSource=https%3A%2F%2Ffonts.googleapis.com%2Fcss%3Ffamily%3DArchitects%2BDaughter;" vertex="1" parent="1">
          <mxGeometry x="600" y="140" width="190" height="40" as="geometry" />
        </mxCell>
        <mxCell id="AhedybuLxWRTys-1fPIC-12" value="Object Type" style="rounded=0;whiteSpace=wrap;html=1;sketch=1;hachureGap=4;jiggle=2;curveFitting=1;fontFamily=Architects Daughter;fontSource=https%3A%2F%2Ffonts.googleapis.com%2Fcss%3Ffamily%3DArchitects%2BDaughter;fillColor=#dae8fc;strokeColor=#6c8ebf;" vertex="1" parent="1">
          <mxGeometry x="20" y="210" width="120" height="40" as="geometry" />
        </mxCell>
        <mxCell id="AhedybuLxWRTys-1fPIC-13" value="Tables" style="rounded=0;whiteSpace=wrap;html=1;sketch=1;hachureGap=4;jiggle=2;curveFitting=1;fontFamily=Architects Daughter;fontSource=https%3A%2F%2Ffonts.googleapis.com%2Fcss%3Ffamily%3DArchitects%2BDaughter;" vertex="1" parent="1">
          <mxGeometry x="190" y="210" width="160" height="40" as="geometry" />
        </mxCell>
        <mxCell id="AhedybuLxWRTys-1fPIC-14" value="Tables" style="rounded=0;whiteSpace=wrap;html=1;sketch=1;hachureGap=4;jiggle=2;curveFitting=1;fontFamily=Architects Daughter;fontSource=https%3A%2F%2Ffonts.googleapis.com%2Fcss%3Ffamily%3DArchitects%2BDaughter;" vertex="1" parent="1">
          <mxGeometry x="400" y="210" width="160" height="40" as="geometry" />
        </mxCell>
        <mxCell id="AhedybuLxWRTys-1fPIC-15" value="Views" style="rounded=0;whiteSpace=wrap;html=1;sketch=1;hachureGap=4;jiggle=2;curveFitting=1;fontFamily=Architects Daughter;fontSource=https%3A%2F%2Ffonts.googleapis.com%2Fcss%3Ffamily%3DArchitects%2BDaughter;" vertex="1" parent="1">
          <mxGeometry x="600" y="210" width="190" height="40" as="geometry" />
        </mxCell>
        <mxCell id="AhedybuLxWRTys-1fPIC-16" value="Load Moethod" style="rounded=0;whiteSpace=wrap;html=1;sketch=1;hachureGap=4;jiggle=2;curveFitting=1;fontFamily=Architects Daughter;fontSource=https%3A%2F%2Ffonts.googleapis.com%2Fcss%3Ffamily%3DArchitects%2BDaughter;fillColor=#dae8fc;strokeColor=#6c8ebf;" vertex="1" parent="1">
          <mxGeometry x="20" y="270" width="120" height="40" as="geometry" />
        </mxCell>
        <mxCell id="AhedybuLxWRTys-1fPIC-17" value="Full Load&lt;div&gt;(Truncate &amp;amp; Insert)&lt;/div&gt;" style="rounded=0;whiteSpace=wrap;html=1;sketch=1;hachureGap=4;jiggle=2;curveFitting=1;fontFamily=Architects Daughter;fontSource=https%3A%2F%2Ffonts.googleapis.com%2Fcss%3Ffamily%3DArchitects%2BDaughter;" vertex="1" parent="1">
          <mxGeometry x="190" y="270" width="160" height="40" as="geometry" />
        </mxCell>
        <mxCell id="AhedybuLxWRTys-1fPIC-18" value="Full Load&lt;div&gt;(Truncate &amp;amp; Insert)&lt;/div&gt;" style="rounded=0;whiteSpace=wrap;html=1;sketch=1;hachureGap=4;jiggle=2;curveFitting=1;fontFamily=Architects Daughter;fontSource=https%3A%2F%2Ffonts.googleapis.com%2Fcss%3Ffamily%3DArchitects%2BDaughter;" vertex="1" parent="1">
          <mxGeometry x="400" y="270" width="160" height="40" as="geometry" />
        </mxCell>
        <mxCell id="AhedybuLxWRTys-1fPIC-19" value="None" style="rounded=0;whiteSpace=wrap;html=1;sketch=1;hachureGap=4;jiggle=2;curveFitting=1;fontFamily=Architects Daughter;fontSource=https%3A%2F%2Ffonts.googleapis.com%2Fcss%3Ffamily%3DArchitects%2BDaughter;" vertex="1" parent="1">
          <mxGeometry x="600" y="270" width="190" height="40" as="geometry" />
        </mxCell>
        <mxCell id="AhedybuLxWRTys-1fPIC-21" value="Data&lt;div&gt;Transfomation&lt;/div&gt;" style="rounded=0;whiteSpace=wrap;html=1;sketch=1;hachureGap=4;jiggle=2;curveFitting=1;fontFamily=Architects Daughter;fontSource=https%3A%2F%2Ffonts.googleapis.com%2Fcss%3Ffamily%3DArchitects%2BDaughter;fillColor=#dae8fc;strokeColor=#6c8ebf;" vertex="1" parent="1">
          <mxGeometry x="20" y="340" width="120" height="90" as="geometry" />
        </mxCell>
        <mxCell id="AhedybuLxWRTys-1fPIC-22" value="None (as-is)" style="rounded=0;whiteSpace=wrap;html=1;sketch=1;hachureGap=4;jiggle=2;curveFitting=1;fontFamily=Architects Daughter;fontSource=https%3A%2F%2Ffonts.googleapis.com%2Fcss%3Ffamily%3DArchitects%2BDaughter;" vertex="1" parent="1">
          <mxGeometry x="190" y="340" width="160" height="90" as="geometry" />
        </mxCell>
        <mxCell id="AhedybuLxWRTys-1fPIC-23" value="&lt;ul&gt;&lt;li&gt;Data Cleaning&lt;/li&gt;&lt;li&gt;Data Standadization&lt;/li&gt;&lt;li&gt;Data Normalization&lt;/li&gt;&lt;li&gt;Derived Columns&lt;/li&gt;&lt;li&gt;Data Enrichment&lt;/li&gt;&lt;/ul&gt;" style="rounded=0;whiteSpace=wrap;html=1;sketch=1;hachureGap=4;jiggle=2;curveFitting=1;fontFamily=Architects Daughter;fontSource=https%3A%2F%2Ffonts.googleapis.com%2Fcss%3Ffamily%3DArchitects%2BDaughter;align=left;" vertex="1" parent="1">
          <mxGeometry x="400" y="340" width="160" height="90" as="geometry" />
        </mxCell>
        <mxCell id="AhedybuLxWRTys-1fPIC-24" value="&lt;ul&gt;&lt;li&gt;Data Integration&lt;/li&gt;&lt;li&gt;Data Aggreation&lt;/li&gt;&lt;li&gt;Business Logic &amp;amp; Rules&lt;/li&gt;&lt;/ul&gt;" style="rounded=0;whiteSpace=wrap;html=1;sketch=1;hachureGap=4;jiggle=2;curveFitting=1;fontFamily=Architects Daughter;fontSource=https%3A%2F%2Ffonts.googleapis.com%2Fcss%3Ffamily%3DArchitects%2BDaughter;align=left;" vertex="1" parent="1">
          <mxGeometry x="600" y="340" width="190" height="90" as="geometry" />
        </mxCell>
        <mxCell id="AhedybuLxWRTys-1fPIC-25" value="Data Modeling" style="rounded=0;whiteSpace=wrap;html=1;sketch=1;hachureGap=4;jiggle=2;curveFitting=1;fontFamily=Architects Daughter;fontSource=https%3A%2F%2Ffonts.googleapis.com%2Fcss%3Ffamily%3DArchitects%2BDaughter;fillColor=#dae8fc;strokeColor=#6c8ebf;" vertex="1" parent="1">
          <mxGeometry x="20" y="460" width="120" height="50" as="geometry" />
        </mxCell>
        <mxCell id="AhedybuLxWRTys-1fPIC-26" value="None (as-is)" style="rounded=0;whiteSpace=wrap;html=1;sketch=1;hachureGap=4;jiggle=2;curveFitting=1;fontFamily=Architects Daughter;fontSource=https%3A%2F%2Ffonts.googleapis.com%2Fcss%3Ffamily%3DArchitects%2BDaughter;" vertex="1" parent="1">
          <mxGeometry x="190" y="460" width="160" height="50" as="geometry" />
        </mxCell>
        <mxCell id="AhedybuLxWRTys-1fPIC-27" value="None (as-is)" style="rounded=0;whiteSpace=wrap;html=1;sketch=1;hachureGap=4;jiggle=2;curveFitting=1;fontFamily=Architects Daughter;fontSource=https%3A%2F%2Ffonts.googleapis.com%2Fcss%3Ffamily%3DArchitects%2BDaughter;" vertex="1" parent="1">
          <mxGeometry x="400" y="460" width="160" height="50" as="geometry" />
        </mxCell>
        <mxCell id="AhedybuLxWRTys-1fPIC-28" value="&lt;ul&gt;&lt;li&gt;Start Schema&lt;/li&gt;&lt;li&gt;Aggregation Objects&lt;/li&gt;&lt;li&gt;Flat Tables&lt;/li&gt;&lt;/ul&gt;" style="rounded=0;whiteSpace=wrap;html=1;sketch=1;hachureGap=4;jiggle=2;curveFitting=1;fontFamily=Architects Daughter;fontSource=https%3A%2F%2Ffonts.googleapis.com%2Fcss%3Ffamily%3DArchitects%2BDaughter;align=left;" vertex="1" parent="1">
          <mxGeometry x="600" y="460" width="190" height="50" as="geometry" />
        </mxCell>
        <mxCell id="AhedybuLxWRTys-1fPIC-29" value="Target Audience" style="rounded=0;whiteSpace=wrap;html=1;sketch=1;hachureGap=4;jiggle=2;curveFitting=1;fontFamily=Architects Daughter;fontSource=https%3A%2F%2Ffonts.googleapis.com%2Fcss%3Ffamily%3DArchitects%2BDaughter;fillColor=#dae8fc;strokeColor=#6c8ebf;" vertex="1" parent="1">
          <mxGeometry x="20" y="530" width="120" height="40" as="geometry" />
        </mxCell>
        <mxCell id="AhedybuLxWRTys-1fPIC-30" value="Data Engineers" style="rounded=0;whiteSpace=wrap;html=1;sketch=1;hachureGap=4;jiggle=2;curveFitting=1;fontFamily=Architects Daughter;fontSource=https%3A%2F%2Ffonts.googleapis.com%2Fcss%3Ffamily%3DArchitects%2BDaughter;" vertex="1" parent="1">
          <mxGeometry x="190" y="530" width="160" height="40" as="geometry" />
        </mxCell>
        <mxCell id="AhedybuLxWRTys-1fPIC-31" value="Data Analysts&lt;div&gt;Data Engineers&lt;/div&gt;" style="rounded=0;whiteSpace=wrap;html=1;sketch=1;hachureGap=4;jiggle=2;curveFitting=1;fontFamily=Architects Daughter;fontSource=https%3A%2F%2Ffonts.googleapis.com%2Fcss%3Ffamily%3DArchitects%2BDaughter;" vertex="1" parent="1">
          <mxGeometry x="400" y="530" width="160" height="40" as="geometry" />
        </mxCell>
        <mxCell id="AhedybuLxWRTys-1fPIC-32" value="Data Analysts&lt;div&gt;Business Users&lt;/div&gt;" style="rounded=0;whiteSpace=wrap;html=1;sketch=1;hachureGap=4;jiggle=2;curveFitting=1;fontFamily=Architects Daughter;fontSource=https%3A%2F%2Ffonts.googleapis.com%2Fcss%3Ffamily%3DArchitects%2BDaughter;" vertex="1" parent="1">
          <mxGeometry x="600" y="530" width="190" height="40" as="geometry" />
        </mxCell>
      </root>
    </mxGraphModel>
  </diagram>
</mxfile>
